<?xml version="1.0" encoding="UTF-8"?>
<svg id="Layer_1" data-name="Layer 1" xmlns="http://www.w3.org/2000/svg" xmlns:xlink="http://www.w3.org/1999/xlink" viewBox="0 0 95.08 98.05">
  <defs>
    <style>
      .cls-1 {
        fill: none;
      }

      .cls-2 {
        clip-path: url(#clippath);
      }
    </style>
    <clipPath id="clippath">
      <rect class="cls-1" width="95.08" height="98.05"/>
    </clipPath>
  </defs>
  <path d="M16.61,69.1l.45,.66-2.66,4.19-.54-.76,.67-1.02-.93-1.32-1.15,.33-.54-.76,4.71-1.32h0Zm-1.66,2.51l1.09-1.62-1.82,.53,.74,1.09h0Z"/>
  <path d="M16.65,76.56l3.14-3.37,1.18,1.19c.26,.26,.45,.53,.58,.83s.19,.56,.16,.86c0,.3-.06,.56-.19,.83s-.29,.53-.51,.76c-.26,.26-.51,.46-.77,.59-.26,.13-.54,.2-.83,.2s-.54-.03-.83-.17c-.29-.13-.54-.3-.77-.53l-1.15-1.19h0Zm3.75,.43c.16-.17,.26-.33,.35-.53,.1-.17,.13-.36,.13-.53s-.03-.36-.1-.53c-.06-.17-.19-.33-.35-.5l-.54-.56-2.08,2.24,.54,.56c.16,.17,.32,.26,.48,.33,.19,.07,.35,.1,.51,.07,.19-.03,.35-.07,.51-.17,.26-.1,.42-.23,.54-.4h0Z"/>
  <path d="M25.9,78.44l.64,.43-1.06,4.89-.77-.53,.29-1.22-1.31-.89-.96,.73-.77-.53,3.94-2.87h0Zm-.7,2.97l.45-1.88-1.54,1.16,1.09,.73Z"/>
  <path d="M31.92,86.89l1.15-2.87-1.92,1.68-.45-.2-.22-2.61-1.15,2.87-.8-.33,1.73-4.32,.86,.36,.26,3,2.24-1.95,.86,.36-1.73,4.32-.83-.33Z"/>
  <path d="M39.79,85.5s-.06-.07-.16-.13c-.06-.07-.16-.13-.26-.2s-.22-.13-.32-.2c-.13-.07-.26-.1-.38-.13-.22-.03-.42-.03-.58,.03-.13,.07-.22,.17-.26,.33-.03,.1-.03,.17,0,.26,.03,.07,.1,.13,.16,.2s.16,.13,.29,.2,.26,.13,.42,.23c.19,.1,.38,.2,.54,.33,.16,.1,.29,.23,.38,.36,.1,.13,.16,.26,.22,.43,.03,.17,.03,.33,0,.56-.06,.26-.13,.46-.26,.59s-.26,.26-.45,.33c-.16,.07-.35,.1-.58,.13-.22,0-.42,0-.64-.07-.35-.07-.67-.2-.96-.36-.32-.17-.58-.36-.8-.63l.54-.69c.03,.07,.1,.13,.16,.2s.19,.17,.32,.26,.26,.17,.42,.26c.16,.07,.32,.13,.48,.17,.48,.1,.74,0,.8-.33,0-.1,0-.2-.03-.26-.03-.07-.1-.17-.19-.23-.1-.07-.19-.13-.32-.2s-.29-.17-.45-.26c-.19-.1-.38-.2-.51-.33-.16-.1-.26-.2-.35-.33-.1-.13-.13-.26-.16-.4-.03-.13-.03-.3,0-.46,.03-.23,.13-.43,.26-.59s.26-.3,.45-.36c.16-.1,.35-.13,.58-.17,.22-.03,.42,0,.64,.03,.32,.07,.58,.17,.83,.33,.26,.17,.45,.33,.61,.5l-.45,.59h0Z"/>
  <path d="M46.35,89c-.38,.36-.8,.53-1.28,.53-.29,0-.58-.07-.83-.2s-.48-.3-.67-.53-.32-.5-.45-.79c-.1-.3-.16-.59-.16-.96,0-.33,.06-.63,.19-.89,.13-.3,.29-.53,.48-.73s.45-.36,.7-.5c.29-.13,.58-.17,.9-.17,.42,0,.8,.13,1.09,.3,.29,.2,.51,.46,.67,.76l-.67,.5c-.13-.23-.26-.43-.48-.56-.19-.13-.42-.2-.67-.2-.19,0-.38,.03-.54,.13-.16,.07-.29,.2-.42,.33-.13,.13-.19,.3-.29,.5-.06,.2-.1,.4-.13,.59,0,.23,.03,.43,.1,.63s.16,.36,.26,.5c.13,.13,.26,.26,.42,.33,.16,.1,.35,.13,.54,.13,.45,0,.83-.2,1.22-.59v-.33l-.93-.03,.03-.66,1.63,.03-.06,2.41-.74-.03,.1-.5h0Z"/>
  <path d="M51.32,84.45l.77-.13,2.4,4.36-.9,.13-.58-1.09-1.57,.26-.26,1.22-.9,.13,1.02-4.89h0Zm1.41,2.67l-.9-1.72-.38,1.91,1.28-.2h0Z"/>
  <path d="M57.53,82.93l.74-.26,3.11,3.86-.86,.3-.77-.96-1.5,.53-.03,1.25-.86,.3,.19-5.02h0Zm1.86,2.38l-1.15-1.52-.03,1.95,1.18-.43h0Z"/>
  <path d="M64.44,85.08l-2.21-4.09,1.76-.99c.19-.1,.38-.17,.58-.17s.38,.03,.58,.1,.35,.17,.48,.3c.16,.13,.26,.26,.35,.43,.13,.26,.19,.56,.19,.83,0,.3-.1,.56-.29,.76l1.73,1.02-.86,.5-1.54-.92-.77,.43,.74,1.39-.74,.43h0Zm-.32-2.51l.96-.56c.06-.03,.13-.1,.16-.17s.06-.17,.1-.23,0-.17,0-.26c-.03-.1-.06-.2-.1-.3-.06-.1-.13-.17-.19-.23-.06-.07-.16-.1-.22-.13-.1-.03-.16-.03-.26-.03-.06,0-.16,.03-.22,.07l-.93,.53,.7,1.32h0Z"/>
  <path d="M70.52,81.21l-2.88-3.63,1.28-1.06c.29-.23,.58-.4,.86-.5s.58-.1,.83-.07c.29,.03,.54,.13,.77,.3,.26,.17,.48,.36,.67,.63,.22,.26,.38,.56,.48,.86,.1,.3,.13,.59,.1,.86-.03,.3-.13,.56-.26,.83-.16,.26-.35,.5-.61,.73l-1.25,1.06h0Zm.9-3.76c-.13-.17-.29-.33-.45-.43s-.32-.17-.51-.2-.35,0-.51,.03c-.16,.07-.35,.13-.51,.3l-.61,.5,1.89,2.38,.61-.5c.16-.13,.29-.3,.38-.46s.13-.36,.13-.53-.03-.36-.1-.53c-.06-.23-.19-.4-.32-.56h0Z"/>
  <path d="M77.57,73.06l.58,.53-2.08,2.48-3.43-3.07,2.02-2.41,.58,.53-1.44,1.72,.83,.73,1.25-1.49,.54,.5-1.25,1.49,.9,.79,1.5-1.78h0Z"/>
  <path d="M78.21,68.3l2.5,1.52-.45,.79-3.91-2.38,.35-.63,3.78-.53-2.56-1.55,.45-.79,3.91,2.38-.35,.63-3.71,.56h0Z"/>
  <g class="cls-2">
    <path d="M47.54,0C21.29,0,0,21.99,0,49.03s21.32,49.02,47.54,49.02,47.54-21.99,47.54-49.03S73.76,0,47.54,0Zm0,2.15c25.13,0,45.46,20.96,45.46,46.88s-20.33,46.88-45.46,46.88S2.08,74.94,2.08,49.03,22.38,2.15,47.54,2.15h0Z"/>
  </g>
  <path d="M29.56,14.56c-.11,.01-.33,.07-.5,.12-.17,.05-.34,.09-.38,.09-.04,0-.28,.04-.52,.09-.25,.06-.53,.11-.63,.11-.1,0-.4,.13-.68,.26-.27,.14-.6,.29-.73,.34-.17,.07-.26,.15-.35,.28-.07,.11-.2,.23-.29,.28-.09,.04-.25,.12-.34,.16-.22,.11-.6,.56-.84,1.01-.18,.34-.2,.35-.45,.43-.31,.09-.57,.29-.67,.53-.04,.1-.09,.41-.11,.73l-.04,.56-.36,.16c-1.04,.46-1.43,.84-1.53,1.48-.03,.18-.03,.32,0,.32,.03,0,.26-.02,.52-.06,.75-.09,1.35-.12,1.82-.08l.43,.04v.44c-.03,.55,.1,.93,.36,1.13,.16,.11,.17,.14,.15,.35-.05,.65,.37,.98,1.28,.99,.28,0,.47,.04,.72,.13,.4,.14,.66,.17,.94,.1,.11-.03,.2-.04,.21-.04,0,0-.1,.32-.24,.7-2.05,5.59-2.66,7.51-3.17,10.01-.3,1.46-.39,2.11-.47,3.37-.18,2.68-.32,4.14-.55,5.58-.19,1.19-.22,1.49-.21,1.94,.03,1.45,.45,2.49,1.6,3.95,1.77,2.25,2.35,2.89,3.4,3.79,1.17,1,2.25,1.64,3.24,1.92,1.12,.32,1.94,.83,4.51,2.77,1.71,1.3,1.84,1.45,2.19,2.51,.42,1.29,.76,1.7,2.54,3.07,.41,.32,.89,.72,1.06,.87s.31,.29,.32,.3c.03,.03-.33,1.01-.61,1.66-.54,1.25-1.59,3.29-2.14,4.13-.16,.24-.24,.33-.37,.36-.28,.09-.74,.11-1.53,.09-.84-.03-1.02,0-1.61,.27-.21,.1-.42,.18-.45,.17-.14-.01-.52,.39-.64,.7-.04,.1-.04,.1,.16,.09,.12,0,.4,.03,.64,.08,.24,.05,.77,.14,1.2,.19l.77,.1-.81,.42c-.44,.23-.86,.46-.91,.5-.14,.13-.19,.44-.13,.82,.03,.18,.04,.46,.03,.61l-.02,.28,.24-.13c.12-.07,.35-.17,.48-.22,.13-.05,.52-.27,.85-.5,.34-.22,.74-.45,.89-.5,.25-.09,.31-.1,.74-.04,.35,.04,.53,.1,.77,.21,.35,.18,.52,.18,.62,0,.05-.09,.05-.16,0-.34-.14-.51,0-.91,.51-1.48,.68-.74,1.56-2.41,3.21-6.07l.75-1.67,.68-.36c.84-.44,.99-.56,1.6-1.27,.64-.74,.72-.78,1.32-.79,.46,0,2.73-.12,2.85-.15,.04,0,.05,.14,.04,.5-.02,1.29-.03,2.06,0,2.33,.01,.16,.13,.8,.26,1.41,.15,.73,.24,1.24,.24,1.48,0,.34,0,.38-.19,.64-.1,.15-.39,.47-.66,.7l-.47,.43-.53,.14c-1.1,.28-1.71,.7-1.96,1.36l-.07,.17h.16c.09-.02,.52-.07,.95-.12,.93-.12,2.29-.24,2.88-.25,.41-.01,1.23-.21,2.18-.53,.42-.14,.56-.13,1.01,.04,.3,.11,.41,.19,.81,.57,.8,.76,.76,.83,.35-.61q-.43-1.46-1.27-1.98c-.69-.43-1.05-.71-1.17-.9-.12-.2-.29-1.22-.45-2.62-.12-1.02-.31-3-.3-3.01,0,0,.39-.18,.85-.4,1.62-.76,2.59-1.3,3.53-1.94,1.42-.97,2.02-1.36,2.73-1.72,.36-.18,.75-.42,.88-.52,.51-.44,1.02-1.19,1.27-1.83,.2-.53,.39-.77,.99-1.24,.3-.24,.58-.48,.61-.53,.14-.2,.21-.58,.35-1.84,.11-1.01,.16-1.34,.23-1.46,.18-.32,.66-.76,2.16-1.98,.85-.69,1.63-1.36,1.74-1.5,.58-.7,.82-1.29,1-2.44,.21-1.36,.36-1.61,1.38-2.32,.15-.11,.29-.42,.42-.96,.09-.37,.14-.47,.29-.63,.25-.25,.7-.55,1.08-.71,.24-.1,.35-.18,.49-.37,.16-.2,.19-.27,.19-.48,0-.13-.05-.38-.11-.56-.18-.51-.19-.48,.16-.49,.29,0,.31-.02,.45-.19,.08-.1,.22-.25,.31-.33,.14-.12,.18-.18,.21-.44s.03-.31-.07-.47c-.18-.27-.23-.45-.28-.89-.09-.86-.09-.83,.21-1.11,.15-.14,.29-.3,.32-.36,.03-.1,0-.44-.06-.65-.03-.09,0-.09,.51,0,.61,.09,.79,.19,1.15,.59,.14,.17,.2,.2,.27,.17,.2-.08,.32-.68,.2-1.02-.04-.12-.42-.57-1.05-1.29l-.99-1.11-.05-.31c-.03-.17-.04-.45-.03-.61,.02-.29,.02-.3-.21-.58-.13-.16-.33-.35-.45-.44-.19-.14-.26-.17-.57-.19-.25-.02-.46,0-.71,.06-.2,.05-.36,.09-.37,.09s0-.14,.01-.3c.02-.16,.03-.33,.04-.38,0-.04-.15-.26-.34-.48-.44-.52-.46-.57-.33-.78,.19-.3-.06-.48-.93-.68l-.57-.13-.16-.3-.16-.29-.28-.02-.27-.02-.14-.29c-.16-.33-.31-.45-.69-.52-.24-.05-.3-.03-1.06,.25-1.04,.39-1.61,.65-1.89,.88-.4,.32-1.84,2.31-3.19,4.4-.68,1.05-.82,1.24-1.38,1.83-.66,.69-.88,.86-1.57,1.18-.99,.45-1.31,.56-1.95,.65-2.62,.37-11.75,.75-13.75,.58-.45-.04-.91-.23-1.67-.69-1.45-.89-2.79-2.14-3.15-2.95-.25-.55-.49-1.73-.86-4.17-.09-.61-.25-1.59-.35-2.19-.43-2.48-.72-3.07-2.49-4.92-.46-.49-.94-.96-1.07-1.07-.38-.31-.85-.54-1.36-.66-.28-.07-.57-.17-.71-.25-.25-.15-.92-.67-.92-.71,0-.01,.11-.13,.24-.25,.32-.28,.51-.65,.5-.98-.01-.48-.31-.99-.71-1.23-.23-.1-.7-.19-.99-.15Z"/>
</svg>