<?xml version="1.0" encoding="utf-8"?>
<!-- Generator: Adobe Illustrator 27.0.1, SVG Export Plug-In . SVG Version: 6.00 Build 0)  -->
<svg version="1.1" id="Layer_1" xmlns="http://www.w3.org/2000/svg" xmlns:xlink="http://www.w3.org/1999/xlink" x="0px" y="0px"
	 viewBox="0 0 306.3 302.8" style="enable-background:new 0 0 306.3 302.8;" xml:space="preserve">
<style type="text/css">
	.st0{clip-path:url(#SVGID_00000106863469803360685300000002799143030979034253_);}
</style>
<path d="M55.5,215.1l1.4,2l-8.3,12.7l-1.7-2.3l2.1-3.1l-2.9-4l-3.6,1l-1.7-2.3L55.5,215.1L55.5,215.1z M50.3,222.7l3.4-4.9l-5.7,1.6
	L50.3,222.7L50.3,222.7z"/>
<path d="M55.6,237.7l9.8-10.2l3.7,3.6c0.8,0.8,1.4,1.6,1.8,2.5c0.4,0.9,0.6,1.7,0.5,2.6c0,0.9-0.2,1.7-0.6,2.5
	c-0.4,0.8-0.9,1.6-1.6,2.3c-0.8,0.8-1.6,1.4-2.4,1.8c-0.8,0.4-1.7,0.6-2.6,0.6c-0.9,0-1.7-0.1-2.6-0.5c-0.9-0.4-1.7-0.9-2.4-1.6
	L55.6,237.7L55.6,237.7z M67.3,239c0.5-0.5,0.8-1,1.1-1.6c0.3-0.5,0.4-1.1,0.4-1.6c0-0.5-0.1-1.1-0.3-1.6c-0.2-0.5-0.6-1-1.1-1.5
	l-1.7-1.7l-6.5,6.8l1.7,1.7c0.5,0.5,1,0.8,1.5,1c0.6,0.2,1.1,0.3,1.6,0.2c0.6-0.1,1.1-0.2,1.6-0.5C66.4,239.9,66.9,239.5,67.3,239
	L67.3,239z"/>
<path d="M84.5,243.4l2,1.3l-3.3,14.8l-2.4-1.6l0.9-3.7l-4.1-2.7l-3,2.2l-2.4-1.6L84.5,243.4L84.5,243.4z M82.3,252.4l1.4-5.7
	l-4.8,3.5L82.3,252.4z"/>
<path d="M103.3,269l3.6-8.7l-6,5.1l-1.4-0.6l-0.7-7.9l-3.6,8.7l-2.5-1l5.4-13.1l2.7,1.1l0.8,9.1l7-5.9l2.7,1.1l-5.4,13.1L103.3,269z
	"/>
<path d="M127.9,264.8c-0.1-0.1-0.2-0.2-0.5-0.4c-0.2-0.2-0.5-0.4-0.8-0.6c-0.3-0.2-0.7-0.4-1-0.6c-0.4-0.2-0.8-0.3-1.2-0.4
	c-0.7-0.1-1.3-0.1-1.8,0.1c-0.4,0.2-0.7,0.5-0.8,1c-0.1,0.3-0.1,0.5,0,0.8c0.1,0.2,0.3,0.4,0.5,0.6c0.2,0.2,0.5,0.4,0.9,0.6
	c0.4,0.2,0.8,0.4,1.3,0.7c0.6,0.3,1.2,0.6,1.7,1c0.5,0.3,0.9,0.7,1.2,1.1c0.3,0.4,0.5,0.8,0.7,1.3c0.1,0.5,0.1,1,0,1.7
	c-0.2,0.8-0.4,1.4-0.8,1.8s-0.8,0.8-1.4,1c-0.5,0.2-1.1,0.3-1.8,0.4c-0.7,0-1.3,0-2-0.2c-1.1-0.2-2.1-0.6-3-1.1
	c-1-0.5-1.8-1.1-2.5-1.9l1.7-2.1c0.1,0.2,0.3,0.4,0.5,0.6s0.6,0.5,1,0.8c0.4,0.3,0.8,0.5,1.3,0.8c0.5,0.2,1,0.4,1.5,0.5
	c1.5,0.3,2.3,0,2.5-1c0-0.3,0-0.6-0.1-0.8c-0.1-0.2-0.3-0.5-0.6-0.7c-0.3-0.2-0.6-0.4-1-0.6c-0.4-0.2-0.9-0.5-1.4-0.8
	c-0.6-0.3-1.2-0.6-1.6-1c-0.5-0.3-0.8-0.6-1.1-1c-0.3-0.4-0.4-0.8-0.5-1.2c-0.1-0.4-0.1-0.9,0-1.4c0.1-0.7,0.4-1.3,0.8-1.8
	c0.4-0.5,0.8-0.9,1.4-1.1c0.5-0.3,1.1-0.4,1.8-0.5c0.7-0.1,1.3,0,2,0.1c1,0.2,1.8,0.5,2.6,1c0.8,0.5,1.4,1,1.9,1.5L127.9,264.8
	L127.9,264.8z"/>
<path d="M148.4,275.4c-1.2,1.1-2.5,1.6-4,1.6c-0.9,0-1.8-0.2-2.6-0.6c-0.8-0.4-1.5-0.9-2.1-1.6c-0.6-0.7-1-1.5-1.4-2.4
	c-0.3-0.9-0.5-1.8-0.5-2.9c0-1,0.2-1.9,0.6-2.7c0.4-0.9,0.9-1.6,1.5-2.2c0.6-0.6,1.4-1.1,2.2-1.5c0.9-0.4,1.8-0.5,2.8-0.5
	c1.3,0,2.5,0.4,3.4,0.9c0.9,0.6,1.6,1.4,2.1,2.3l-2.1,1.5c-0.4-0.7-0.8-1.3-1.5-1.7c-0.6-0.4-1.3-0.6-2.1-0.6
	c-0.6,0-1.2,0.1-1.7,0.4c-0.5,0.2-0.9,0.6-1.3,1c-0.4,0.4-0.6,0.9-0.9,1.5c-0.2,0.6-0.3,1.2-0.4,1.8c0,0.7,0.1,1.3,0.3,1.9
	c0.2,0.6,0.5,1.1,0.8,1.5c0.4,0.4,0.8,0.8,1.3,1c0.5,0.3,1.1,0.4,1.7,0.4c1.4,0,2.6-0.6,3.8-1.8l0-1l-2.9-0.1l0.1-2l5.1,0.1
	l-0.2,7.3l-2.3-0.1L148.4,275.4L148.4,275.4z"/>
<path d="M163.9,261.6l2.4-0.4l7.5,13.2l-2.8,0.4l-1.8-3.3l-4.9,0.8l-0.8,3.7l-2.8,0.4L163.9,261.6L163.9,261.6z M168.3,269.7
	l-2.8-5.2l-1.2,5.8L168.3,269.7L168.3,269.7z"/>
<path d="M183.3,257l2.3-0.8l9.7,11.7l-2.7,0.9l-2.4-2.9l-4.7,1.6l-0.1,3.8l-2.7,0.9L183.3,257L183.3,257z M189.1,264.2l-3.6-4.6
	l-0.1,5.9L189.1,264.2L189.1,264.2z"/>
<path d="M204.9,263.5l-6.9-12.4l5.5-3c0.6-0.3,1.2-0.5,1.8-0.5s1.2,0.1,1.8,0.3c0.6,0.2,1.1,0.5,1.5,0.9c0.5,0.4,0.8,0.8,1.1,1.3
	c0.4,0.8,0.6,1.7,0.6,2.5c0,0.9-0.3,1.7-0.9,2.3l5.4,3.1l-2.7,1.5l-4.8-2.8l-2.4,1.3l2.3,4.2L204.9,263.5L204.9,263.5z M203.9,255.9
	l3-1.7c0.2-0.1,0.4-0.3,0.5-0.5c0.1-0.2,0.2-0.5,0.3-0.7s0-0.5,0-0.8c-0.1-0.3-0.2-0.6-0.3-0.9c-0.2-0.3-0.4-0.5-0.6-0.7
	c-0.2-0.2-0.5-0.3-0.7-0.4c-0.3-0.1-0.5-0.1-0.8-0.1c-0.2,0-0.5,0.1-0.7,0.2l-2.9,1.6L203.9,255.9L203.9,255.9z"/>
<path d="M223.9,251.8l-9-11l4-3.2c0.9-0.7,1.8-1.2,2.7-1.5c0.9-0.3,1.8-0.3,2.6-0.2c0.9,0.1,1.7,0.4,2.4,0.9
	c0.8,0.5,1.5,1.1,2.1,1.9c0.7,0.8,1.2,1.7,1.5,2.6c0.3,0.9,0.4,1.8,0.3,2.6c-0.1,0.9-0.4,1.7-0.8,2.5c-0.5,0.8-1.1,1.5-1.9,2.2
	L223.9,251.8L223.9,251.8z M226.7,240.4c-0.4-0.5-0.9-1-1.4-1.3c-0.5-0.3-1-0.5-1.6-0.6s-1.1,0-1.6,0.1c-0.5,0.2-1.1,0.4-1.6,0.9
	l-1.9,1.5l5.9,7.2l1.9-1.5c0.5-0.4,0.9-0.9,1.2-1.4c0.3-0.5,0.4-1.1,0.4-1.6c0-0.5-0.1-1.1-0.3-1.6
	C227.5,241.4,227.1,240.9,226.7,240.4L226.7,240.4z"/>
<path d="M245.9,227.1l1.8,1.6l-6.5,7.5l-10.7-9.3l6.3-7.3l1.8,1.6l-4.5,5.2l2.6,2.2l3.9-4.5l1.7,1.5l-3.9,4.5l2.8,2.4L245.9,227.1
	L245.9,227.1z"/>
<path d="M247.9,212.7l7.8,4.6l-1.4,2.4l-12.2-7.2l1.1-1.9L255,209l-8-4.7l1.4-2.4l12.2,7.2l-1.1,1.9L247.9,212.7L247.9,212.7z"/>
<g>
	<defs>
		<rect id="SVGID_1_" x="3.6" y="5.8" width="297" height="297"/>
	</defs>
	<clipPath id="SVGID_00000149347157477988109040000003877808002598148281_">
		<use xlink:href="#SVGID_1_"  style="overflow:visible;"/>
	</clipPath>
	<g style="clip-path:url(#SVGID_00000149347157477988109040000003877808002598148281_);">
		<path d="M152.1,5.8C70.1,5.8,3.6,72.4,3.6,154.3s66.6,148.5,148.5,148.5s148.5-66.6,148.5-148.5S234,5.8,152.1,5.8z M152.1,12.3
			c78.5,0,142,63.5,142,142s-63.5,142-142,142s-142-63.5-142-142S73.5,12.3,152.1,12.3L152.1,12.3z"/>
	</g>
</g>
<g transform="translate(0.000000,1280.000000) scale(0.100000,-0.100000)">
	<path d="M959.4,12300.9c-3.3-0.4-10.4-2.2-15.7-3.7c-5.2-1.6-10.6-2.7-11.8-2.6c-1.4,0.1-8.7-1.1-16.4-2.8
		c-7.8-1.7-16.6-3.2-19.6-3.4c-3.2-0.2-12.6-3.9-21.1-7.9c-8.5-4.2-18.8-8.8-22.7-10.2c-5.2-2-8.2-4.4-10.9-8.6
		c-2.2-3.3-6.1-7.1-9-8.5c-2.9-1.3-7.7-3.5-10.6-4.9c-6.9-3.2-18.7-17.1-26.1-30.5c-5.6-10.2-6.1-10.6-14.1-13
		c-9.8-2.8-17.7-8.9-20.8-16c-1.3-2.9-2.8-12.3-3.4-22.1l-1.1-17l-11.4-4.8c-32.4-13.9-44.7-25.4-47.9-44.7c-0.9-5.6-1-9.7,0-9.8
		c0.8-0.1,8.1,0.6,16.3,1.7c23.5,2.7,42.2,3.5,56.9,2.3l13.4-1.1l-0.3-13.4c-0.5-16.7,3.5-28.2,11.6-34.1c4.9-3.4,5.3-4.3,4.8-10.5
		c-1.6-19.7,11.7-29.6,40.1-30.1c8.9-0.2,14.7-1.2,22.5-3.9c12.4-4.2,20.6-5,29.4-3c3.4,0.9,6.4,1.3,6.5,1.2
		c0.1-0.2-3.2-9.8-7.6-21.3c-64-169.3-83-227.4-98.9-303.1c-9.4-44.3-12.1-63.9-14.8-102.1c-5.5-81.3-10-125.4-17.3-168.9
		c-6-36.1-6.9-45.1-6.6-58.7c1-44,14.1-75.3,50-119.6c55.3-68.2,73.3-87.6,106.2-114.7c36.6-30.2,70.3-49.7,101.2-58.3
		c34.9-9.7,60.6-25,140.8-84c53.4-39.4,57.6-44,68.4-76.1c13.1-39,23.7-51.5,79.3-93c12.9-9.7,27.9-21.7,33.1-26.5s9.8-8.9,9.9-9.1
		c1-0.8-10.4-30.6-19.1-50.3c-16.8-37.8-49.8-99.6-66.7-125.2c-4.9-7.4-7.6-9.9-11.6-11c-8.7-2.6-23.1-3.4-47.7-2.7
		c-26.3,0.8-31.8-0.2-50.3-8.2c-6.7-3.1-13.2-5.4-14.1-5.3c-4.4,0.4-16.1-11.9-20-21.2c-1.3-2.9-1.2-3.1,5.1-2.7
		c3.6,0.3,12.5-0.9,19.9-2.4c7.4-1.6,24.1-4.3,37.4-5.9l23.9-3l-25.3-12.6c-13.9-6.9-26.8-13.8-28.5-15.2c-4.4-3.8-5.8-13.2-4-24.8
		c0.9-5.6,1.4-13.8,1-18.6l-0.7-8.6l7.4,3.9c3.9,2.1,10.8,5,15,6.7c4.2,1.5,16.2,8.3,26.7,15.1c10.5,6.6,23,13.5,27.7,15.2
		c7.9,2.8,9.8,2.9,23,1.1c10.9-1.3,16.6-3,24-6.5c11-5.4,16.2-5.4,19.3-0.2c1.6,2.8,1.7,4.8,0.1,10.4c-4.5,15.3,0,27.7,16,44.8
		c21.2,22.5,48.8,73.1,100.2,183.9l23.4,50.5l21.2,10.8c26.1,13.4,30.8,16.9,50,38.4c19.9,22.3,22.4,23.7,41.1,23.9
		c14.3,0,85.3,3.7,89,4.5c1.3,0.2,1.7-4.3,1.4-15c-0.7-39-0.8-62.4-0.1-70.5c0.4-4.9,4.1-24.2,8.2-42.6c4.8-22.1,7.4-37.5,7.4-44.7
		c-0.1-10.4-0.3-11.5-5.9-19.3c-3-4.5-12.3-14.1-20.6-21.2l-14.8-13.1l-16.7-4.1c-34.5-8.5-53.3-21.1-61.1-41.1l-2.2-5.3l5.1,0.3
		c2.8,0.2,16.2,1.8,29.7,3.4c29,3.5,71.5,7.2,89.9,7.7c12.8,0.4,38.4,6.5,68.1,16c13.1,4.3,17.5,4,31.6-1.2
		c9.3-3.4,12.9-5.8,25.3-17.3c24.9-23,23.8-25,10.8,18.5c-13.4,44.3-13.4,44.3-39.6,60c-21.5,12.9-32.9,21.5-36.5,27.3
		c-3.6,6.1-9.2,36.9-14.1,79.5c-3.7,30.8-9.8,91-9.3,91.2c0.2,0.1,12.1,5.5,26.5,12.1c50.6,23.1,80.9,39.3,110.2,58.8
		c44.3,29.5,63.1,41.1,85.3,52c11.3,5.6,23.5,12.8,27.4,15.9c15.9,13.4,31.9,36.1,39.7,55.3c6.2,16,12.3,23.4,31,37.7
		c9.4,7.3,18,14.5,19.1,16.2c4.3,6.1,6.7,17.6,10.9,55.6c3.5,30.6,5.1,40.5,7.3,44.2c5.7,9.8,20.6,23.1,67.6,60.1
		c26.4,20.9,50.9,41.3,54.2,45.3c18.1,21.3,25.6,39.2,31.2,73.8c6.6,41.2,11.3,48.9,43.1,70.4c4.7,3.4,9.1,12.7,13.1,29
		c2.8,11.2,4.3,14.1,9.1,19c7.7,7.6,21.8,16.7,33.7,21.5c7.5,3,11,5.6,15.4,11.3c5.1,6.2,5.9,8.3,5.8,14.5c0,4-1.5,11.5-3.5,16.9
		c-5.6,15.5-6,14.5,5,14.8c9.1,0.2,9.8,0.5,14.2,5.9c2.4,3,6.8,7.5,9.6,9.9c4.5,3.5,5.5,5.5,6.6,13.2c1.1,7.7,0.9,9.5-2.3,14.2
		c-5.6,8.3-7.2,13.5-8.7,26.9c-2.7,25.9-2.9,25,6.6,33.5c4.8,4.2,9.1,9.2,9.9,11c1,3.1,0.2,13.3-2,19.7c-0.9,2.7-0.1,2.6,16,0.2
		c18.9-2.7,24.8-5.7,35.9-18c4.5-5,6.3-6,8.5-5c6.2,2.4,9.9,20.7,6.3,30.8c-1.3,3.6-13,17.4-32.9,39.2l-30.8,33.6l-1.7,9.5
		c-0.8,5.3-1.2,13.5-0.8,18.6c0.7,8.9,0.6,9.2-6.5,17.6c-4.2,4.7-10.4,10.7-14.1,13.3c-5.9,4.3-8.1,5-17.7,5.8
		c-7.8,0.7-14.4,0.1-22.3-1.7c-6.1-1.5-11.4-2.7-11.7-2.6s-0.1,4.1,0.4,9.1c0.6,4.9,1,10,1.1,11.5c0,1.3-4.7,7.9-10.6,14.6
		c-13.8,15.7-14.4,17.2-10.4,23.6c5.8,9.2-1.9,14.6-29.1,20.5l-17.7,3.8l-5.1,9.1l-4.9,8.9l-8.6,0.6l-8.4,0.6l-4.3,8.7
		c-5,10.1-9.7,13.5-21.6,15.7c-7.6,1.4-9.3,0.9-33-7.6c-32.4-11.7-50.2-19.8-59.1-26.7c-12.6-9.8-57.5-70-99.6-133.4
		c-21.2-31.9-25.6-37.6-43-55.4c-20.6-21-27.6-26-49.2-35.6c-30.8-13.7-40.9-17-61-19.7c-81.8-11.1-367-22.8-429.4-17.5
		c-14,1.2-28.5,7-52.3,21c-45.4,26.9-87,64.8-98.3,89.3c-7.9,16.8-15.3,52.3-26.8,126.4c-2.8,18.6-7.9,48.3-10.9,66.4
		c-13.3,75.2-22.5,92.9-77.9,149.1c-14.5,14.8-29.5,29.2-33.3,32.3c-11.8,9.4-26.6,16.4-42.6,20c-8.8,2-17.9,5.3-22.1,7.6
		c-7.9,4.6-28.8,20.3-28.7,21.6c0,0.4,3.5,3.8,7.5,7.5c10,8.4,15.8,19.6,15.5,29.8c-0.4,14.5-9.6,30-22.2,37.3
		C983.1,12299.6,968.3,12302.2,959.4,12300.9z"/>
</g>
</svg>
